<mxfile host="app.diagrams.net" agent="Mozilla/5.0 (Windows NT 10.0; Win64; x64) AppleWebKit/537.36 (KHTML, like Gecko) Chrome/129.0.0.0 Safari/537.36" version="24.7.16">
  <diagram name="Page-1" id="2YBvvXClWsGukQMizWep">
    <mxGraphModel dx="1221" dy="645" grid="1" gridSize="10" guides="1" tooltips="1" connect="1" arrows="1" fold="1" page="1" pageScale="1" pageWidth="850" pageHeight="1100" math="0" shadow="0">
      <root>
        <mxCell id="0" />
        <mxCell id="1" parent="0" />
        <mxCell id="dE917H4lEQWo411nkI_d-6" style="edgeStyle=orthogonalEdgeStyle;rounded=0;orthogonalLoop=1;jettySize=auto;html=1;exitX=0.5;exitY=1;exitDx=0;exitDy=0;entryX=0.5;entryY=0;entryDx=0;entryDy=0;" edge="1" parent="1" source="dE917H4lEQWo411nkI_d-1" target="dE917H4lEQWo411nkI_d-2">
          <mxGeometry relative="1" as="geometry" />
        </mxCell>
        <mxCell id="dE917H4lEQWo411nkI_d-1" value="开始" style="rounded=1;whiteSpace=wrap;html=1;" vertex="1" parent="1">
          <mxGeometry x="80" y="40" width="80" height="40" as="geometry" />
        </mxCell>
        <mxCell id="dE917H4lEQWo411nkI_d-7" style="edgeStyle=orthogonalEdgeStyle;rounded=0;orthogonalLoop=1;jettySize=auto;html=1;exitX=0.5;exitY=1;exitDx=0;exitDy=0;entryX=0.5;entryY=0;entryDx=0;entryDy=0;" edge="1" parent="1" source="dE917H4lEQWo411nkI_d-2" target="dE917H4lEQWo411nkI_d-3">
          <mxGeometry relative="1" as="geometry" />
        </mxCell>
        <mxCell id="dE917H4lEQWo411nkI_d-2" value="初始化循环变量" style="rounded=0;whiteSpace=wrap;html=1;" vertex="1" parent="1">
          <mxGeometry x="70" y="120" width="100" height="30" as="geometry" />
        </mxCell>
        <mxCell id="dE917H4lEQWo411nkI_d-5" style="edgeStyle=orthogonalEdgeStyle;rounded=0;orthogonalLoop=1;jettySize=auto;html=1;exitX=1;exitY=0.5;exitDx=0;exitDy=0;entryX=0;entryY=0.5;entryDx=0;entryDy=0;" edge="1" parent="1" source="dE917H4lEQWo411nkI_d-3" target="dE917H4lEQWo411nkI_d-4">
          <mxGeometry relative="1" as="geometry" />
        </mxCell>
        <mxCell id="dE917H4lEQWo411nkI_d-10" style="edgeStyle=orthogonalEdgeStyle;rounded=0;orthogonalLoop=1;jettySize=auto;html=1;exitX=0.5;exitY=1;exitDx=0;exitDy=0;entryX=0.5;entryY=0;entryDx=0;entryDy=0;" edge="1" parent="1" source="dE917H4lEQWo411nkI_d-3" target="dE917H4lEQWo411nkI_d-8">
          <mxGeometry relative="1" as="geometry" />
        </mxCell>
        <mxCell id="dE917H4lEQWo411nkI_d-3" value="判断&amp;lt;2" style="rhombus;whiteSpace=wrap;html=1;" vertex="1" parent="1">
          <mxGeometry x="75" y="180" width="90" height="50" as="geometry" />
        </mxCell>
        <mxCell id="dE917H4lEQWo411nkI_d-4" value="结束" style="rounded=0;whiteSpace=wrap;html=1;" vertex="1" parent="1">
          <mxGeometry x="220" y="187.5" width="90" height="35" as="geometry" />
        </mxCell>
        <mxCell id="dE917H4lEQWo411nkI_d-20" style="edgeStyle=orthogonalEdgeStyle;rounded=0;orthogonalLoop=1;jettySize=auto;html=1;exitX=0.5;exitY=1;exitDx=0;exitDy=0;entryX=0.5;entryY=0;entryDx=0;entryDy=0;" edge="1" parent="1" source="dE917H4lEQWo411nkI_d-8" target="dE917H4lEQWo411nkI_d-13">
          <mxGeometry relative="1" as="geometry" />
        </mxCell>
        <mxCell id="dE917H4lEQWo411nkI_d-8" value="调用fork()&lt;div&gt;创建子进程&lt;/div&gt;" style="rounded=0;whiteSpace=wrap;html=1;" vertex="1" parent="1">
          <mxGeometry x="75" y="260" width="90" height="35" as="geometry" />
        </mxCell>
        <mxCell id="dE917H4lEQWo411nkI_d-21" style="edgeStyle=orthogonalEdgeStyle;rounded=0;orthogonalLoop=1;jettySize=auto;html=1;exitX=0.5;exitY=1;exitDx=0;exitDy=0;entryX=0.5;entryY=0;entryDx=0;entryDy=0;" edge="1" parent="1" source="dE917H4lEQWo411nkI_d-13" target="dE917H4lEQWo411nkI_d-15">
          <mxGeometry relative="1" as="geometry" />
        </mxCell>
        <mxCell id="dE917H4lEQWo411nkI_d-13" value="输出 -" style="rounded=0;whiteSpace=wrap;html=1;" vertex="1" parent="1">
          <mxGeometry x="75" y="330" width="90" height="35" as="geometry" />
        </mxCell>
        <mxCell id="dE917H4lEQWo411nkI_d-22" style="edgeStyle=orthogonalEdgeStyle;rounded=0;orthogonalLoop=1;jettySize=auto;html=1;exitX=0.5;exitY=1;exitDx=0;exitDy=0;entryX=0.5;entryY=0;entryDx=0;entryDy=0;" edge="1" parent="1" source="dE917H4lEQWo411nkI_d-15" target="dE917H4lEQWo411nkI_d-18">
          <mxGeometry relative="1" as="geometry" />
        </mxCell>
        <mxCell id="dE917H4lEQWo411nkI_d-15" value="循环变量增加" style="rounded=0;whiteSpace=wrap;html=1;" vertex="1" parent="1">
          <mxGeometry x="75" y="400" width="90" height="35" as="geometry" />
        </mxCell>
        <mxCell id="dE917H4lEQWo411nkI_d-19" style="edgeStyle=orthogonalEdgeStyle;rounded=0;orthogonalLoop=1;jettySize=auto;html=1;exitX=0;exitY=0.5;exitDx=0;exitDy=0;entryX=0;entryY=0.5;entryDx=0;entryDy=0;" edge="1" parent="1" source="dE917H4lEQWo411nkI_d-18" target="dE917H4lEQWo411nkI_d-3">
          <mxGeometry relative="1" as="geometry" />
        </mxCell>
        <mxCell id="dE917H4lEQWo411nkI_d-18" value="子进程结束" style="rounded=0;whiteSpace=wrap;html=1;" vertex="1" parent="1">
          <mxGeometry x="75" y="470" width="90" height="35" as="geometry" />
        </mxCell>
        <mxCell id="dE917H4lEQWo411nkI_d-38" style="edgeStyle=orthogonalEdgeStyle;rounded=0;orthogonalLoop=1;jettySize=auto;html=1;exitX=0.5;exitY=1;exitDx=0;exitDy=0;entryX=0.5;entryY=0;entryDx=0;entryDy=0;" edge="1" parent="1" source="dE917H4lEQWo411nkI_d-23" target="dE917H4lEQWo411nkI_d-24">
          <mxGeometry relative="1" as="geometry" />
        </mxCell>
        <mxCell id="dE917H4lEQWo411nkI_d-23" value="开始" style="rounded=1;whiteSpace=wrap;html=1;" vertex="1" parent="1">
          <mxGeometry x="420" y="40" width="80" height="40" as="geometry" />
        </mxCell>
        <mxCell id="dE917H4lEQWo411nkI_d-39" style="edgeStyle=orthogonalEdgeStyle;rounded=0;orthogonalLoop=1;jettySize=auto;html=1;exitX=0.5;exitY=1;exitDx=0;exitDy=0;entryX=0.5;entryY=0;entryDx=0;entryDy=0;" edge="1" parent="1" source="dE917H4lEQWo411nkI_d-24" target="dE917H4lEQWo411nkI_d-27">
          <mxGeometry relative="1" as="geometry" />
        </mxCell>
        <mxCell id="dE917H4lEQWo411nkI_d-24" value="解析命令行参数" style="rounded=0;whiteSpace=wrap;html=1;" vertex="1" parent="1">
          <mxGeometry x="410" y="120" width="100" height="30" as="geometry" />
        </mxCell>
        <mxCell id="dE917H4lEQWo411nkI_d-40" style="edgeStyle=orthogonalEdgeStyle;rounded=0;orthogonalLoop=1;jettySize=auto;html=1;exitX=0.5;exitY=1;exitDx=0;exitDy=0;entryX=0.5;entryY=0;entryDx=0;entryDy=0;" edge="1" parent="1" source="dE917H4lEQWo411nkI_d-27" target="dE917H4lEQWo411nkI_d-29">
          <mxGeometry relative="1" as="geometry" />
        </mxCell>
        <mxCell id="dE917H4lEQWo411nkI_d-27" value="创建子进程" style="rounded=0;whiteSpace=wrap;html=1;" vertex="1" parent="1">
          <mxGeometry x="410" y="187.5" width="100" height="30" as="geometry" />
        </mxCell>
        <mxCell id="dE917H4lEQWo411nkI_d-28" value="&lt;div&gt;&lt;span style=&quot;background-color: initial;&quot;&gt;设置 proc_number&lt;/span&gt;&lt;/div&gt;&lt;div&gt;调用 do_something()&lt;/div&gt;&lt;div&gt;&lt;span style=&quot;background-color: initial;&quot;&gt;调用 exit(0)&lt;/span&gt;&lt;/div&gt;" style="rounded=0;whiteSpace=wrap;html=1;strokeWidth=1;spacingTop=8;spacingBottom=6;" vertex="1" parent="1">
          <mxGeometry x="250" y="370" width="120" height="50" as="geometry" />
        </mxCell>
        <mxCell id="dE917H4lEQWo411nkI_d-35" style="edgeStyle=orthogonalEdgeStyle;rounded=0;orthogonalLoop=1;jettySize=auto;html=1;exitX=0;exitY=0.5;exitDx=0;exitDy=0;entryX=0.5;entryY=0;entryDx=0;entryDy=0;" edge="1" parent="1" source="dE917H4lEQWo411nkI_d-29" target="dE917H4lEQWo411nkI_d-28">
          <mxGeometry relative="1" as="geometry" />
        </mxCell>
        <mxCell id="dE917H4lEQWo411nkI_d-36" style="edgeStyle=orthogonalEdgeStyle;rounded=0;orthogonalLoop=1;jettySize=auto;html=1;exitX=1;exitY=0.5;exitDx=0;exitDy=0;entryX=0.5;entryY=0;entryDx=0;entryDy=0;" edge="1" parent="1" source="dE917H4lEQWo411nkI_d-29" target="dE917H4lEQWo411nkI_d-31">
          <mxGeometry relative="1" as="geometry" />
        </mxCell>
        <mxCell id="dE917H4lEQWo411nkI_d-41" style="edgeStyle=orthogonalEdgeStyle;rounded=0;orthogonalLoop=1;jettySize=auto;html=1;exitX=0.5;exitY=1;exitDx=0;exitDy=0;entryX=0.5;entryY=0;entryDx=0;entryDy=0;" edge="1" parent="1" source="dE917H4lEQWo411nkI_d-29" target="dE917H4lEQWo411nkI_d-37">
          <mxGeometry relative="1" as="geometry" />
        </mxCell>
        <mxCell id="dE917H4lEQWo411nkI_d-29" value="判断是否是child_pid" style="rhombus;whiteSpace=wrap;html=1;" vertex="1" parent="1">
          <mxGeometry x="412.5" y="260" width="95" height="70" as="geometry" />
        </mxCell>
        <mxCell id="dE917H4lEQWo411nkI_d-31" value="保存子进程ID" style="rounded=0;whiteSpace=wrap;html=1;" vertex="1" parent="1">
          <mxGeometry x="600" y="365" width="120" height="50" as="geometry" />
        </mxCell>
        <mxCell id="dE917H4lEQWo411nkI_d-45" style="edgeStyle=orthogonalEdgeStyle;rounded=0;orthogonalLoop=1;jettySize=auto;html=1;exitX=0.5;exitY=1;exitDx=0;exitDy=0;entryX=0.5;entryY=0;entryDx=0;entryDy=0;" edge="1" parent="1" source="dE917H4lEQWo411nkI_d-37" target="dE917H4lEQWo411nkI_d-44">
          <mxGeometry relative="1" as="geometry" />
        </mxCell>
        <mxCell id="dE917H4lEQWo411nkI_d-37" value="等待用户输入" style="rounded=0;whiteSpace=wrap;html=1;" vertex="1" parent="1">
          <mxGeometry x="410" y="405" width="100" height="30" as="geometry" />
        </mxCell>
        <mxCell id="dE917H4lEQWo411nkI_d-47" style="edgeStyle=orthogonalEdgeStyle;rounded=0;orthogonalLoop=1;jettySize=auto;html=1;exitX=0.5;exitY=1;exitDx=0;exitDy=0;entryX=0.5;entryY=0;entryDx=0;entryDy=0;" edge="1" parent="1" source="dE917H4lEQWo411nkI_d-44" target="dE917H4lEQWo411nkI_d-46">
          <mxGeometry relative="1" as="geometry" />
        </mxCell>
        <mxCell id="dE917H4lEQWo411nkI_d-44" value="输入数字&lt;div&gt;发送SIGTERM信号给对应子进程&lt;/div&gt;" style="rounded=0;whiteSpace=wrap;html=1;" vertex="1" parent="1">
          <mxGeometry x="385" y="490" width="150" height="50" as="geometry" />
        </mxCell>
        <mxCell id="dE917H4lEQWo411nkI_d-46" value="输入‘q’，终止所有进程" style="rounded=0;whiteSpace=wrap;html=1;" vertex="1" parent="1">
          <mxGeometry x="385" y="580" width="150" height="50" as="geometry" />
        </mxCell>
      </root>
    </mxGraphModel>
  </diagram>
</mxfile>
